<svg xmlns="http://www.w3.org/2000/svg" xmlns:xlink="http://www.w3.org/1999/xlink" viewBox="0 0 448 448" width="80" height="80">
    <defs>
        <style>
            .cls-1{fill:url(#linear-gradient);}
        </style>
        <linearGradient id="linear-gradient" y1="224" x2="448" y2="224" gradientUnits="userSpaceOnUse">
            <stop offset="0" stop-color="#5b86e5" />
            <stop offset="1" stop-color="#36d1dc" />
        </linearGradient>
    </defs>
    <title>Content</title>
    <g id="Layer_2" data-name="Layer 2">
        <g id="Layer_1-2" data-name="Layer 1">
            <path class="cls-1" d="M288,32a32,32,0,0,1-32,32H32A32,32,0,0,1,32,0H256A32,32,0,0,1,288,32Zm0,256a32,32,0,0,1-32,32H32a32,32,0,0,1,0-64H256A32,32,0,0,1,288,288ZM0,160a32,32,0,0,1,32-32H416a32,32,0,0,1,0,64H32A32,32,0,0,1,0,160ZM448,416a32,32,0,0,1-32,32H32a32,32,0,0,1,0-64H416A32,32,0,0,1,448,416Z" />
        </g>
    </g>
</svg>
