<svg xmlns="http://www.w3.org/2000/svg" xmlns:xlink="http://www.w3.org/1999/xlink" viewBox="0 0 512 512" width="100" height="100">
	<defs>
		<style>
			.cls-1{fill:url(#linear-gradient);}
		</style>
		<linearGradient id="linear-gradient" y1="256" x2="512" y2="256" gradientUnits="userSpaceOnUse">
			<stop offset="0" stop-color="#5b86e5" />
			<stop offset="1" stop-color="#36d1dc" />
		</linearGradient>
	</defs>
	<title>Paint Roller</title>
	<g id="Layer_2" data-name="Layer 2">
		<g id="Layer_1-2" data-name="Layer 1">
			<path class="cls-1" d="M0,64A64.06,64.06,0,0,1,64,0H352a64.06,64.06,0,0,1,64,64v64a64.06,64.06,0,0,1-64,64H64A64.06,64.06,0,0,1,0,128ZM160,352a32,32,0,0,1,32-32V304a80,80,0,0,1,80-80H416a32,32,0,0,0,32-32V69.5A96,96,0,0,1,512,160v32a96,96,0,0,1-96,96H272a16,16,0,0,0-16,16v16a32,32,0,0,1,32,32V480a32,32,0,0,1-32,32H192a32,32,0,0,1-32-32Z" />
		</g>
	</g>
</svg>
