<svg xmlns="http://www.w3.org/2000/svg" viewBox="0 0 100 100" width="100" height="100">
    <defs>
        <style>
            .cls-1{fill:url(#linear-gradient);}
        </style>
        <linearGradient id="linear-gradient" y1="256" x2="512" y2="256" gradientUnits="userSpaceOnUse">
            <stop offset="0" stop-color="#5b86e5" />
            <stop offset="1" stop-color="#36d1dc" />
        </linearGradient>
    </defs>
    <title>
        Screwdriver Wrench
    </title>
    <g id="Layer_2" data-name="Layer 2">
        <g id="Layer_1-2" data-name="Layer 1">
            <path class="cls-1" d="M15.36,1a4.67,4.67,0,0,0-6.17.39L1.37,9.18A4.71,4.71,0,0,0,1,15.35L16.59,35.67A4.68,4.68,0,0,0,20.3,37.5H30.86L52.15,58.79A15.08,15.08,0,0,0,55,76.29L76.82,98.16a6.25,6.25,0,0,0,8.85,0l12.5-12.5a6.25,6.25,0,0,0,0-8.84L76.29,54.94a15.12,15.12,0,0,0-17.5-2.79L37.5,30.86V20.29a4.67,4.67,0,0,0-1.83-3.71ZM3.89,77.36A13.26,13.26,0,1,0,22.64,96.11l23-23A21.43,21.43,0,0,1,45,60.39l-12.05-12ZM100,28.13a28.42,28.42,0,0,0-.62-6A2.75,2.75,0,0,0,94.65,21L82.17,33.48A3.16,3.16,0,0,1,80,34.4l-11.21,0a3.14,3.14,0,0,1-3.12-3.13V20a3.14,3.14,0,0,1,.92-2.21L79,5.35A2.75,2.75,0,0,0,77.86.63a28.82,28.82,0,0,0-6-.63A28.14,28.14,0,0,0,43.75,28.13v.15L60.41,44.94a21.34,21.34,0,0,1,20.32,5.61l3.06,3.06A28.14,28.14,0,0,0,100,28.13ZM10.94,84.38a4.69,4.69,0,1,1,4.69,4.68A4.69,4.69,0,0,1,10.94,84.38Z" />
        </g>
    </g>
</svg>
